<?xml version="1.0" standalone="no"?>
<!DOCTYPE svg PUBLIC "-//W3C//DTD SVG 20010904//EN"
 "http://www.w3.org/TR/2001/REC-SVG-20010904/DTD/svg10.dtd">
<svg version="1.0" xmlns="http://www.w3.org/2000/svg"
 width="700.000000pt" height="700.000000pt" viewBox="0 0 700.000000 700.000000"
 preserveAspectRatio="xMidYMid meet">
<metadata>
Created by potrace 1.11, written by Peter Selinger 2001-2013
</metadata>
<g transform="translate(0.000000,700.000000) scale(0.100000,-0.100000)"
fill="#000000" stroke="none">
<path d="M3440 6989 c-35 -15 -69 -48 -89 -89 -16 -32 -18 -76 -17 -463 1
-235 -2 -427 -5 -427 -3 0 -98 138 -212 308 -113 169 -217 315 -231 324 -56
40 -139 39 -195 -3 -50 -36 -68 -88 -62 -171 0 -10 109 -180 241 -378 132
-198 240 -362 240 -365 0 -2 -17 -7 -37 -10 -138 -24 -384 -89 -463 -122 -8
-3 -17 -7 -20 -7 -3 -1 -21 -7 -40 -15 -248 -97 -518 -250 -737 -417 -265
-203 -534 -491 -704 -754 -89 -137 -110 -174 -176 -310 -165 -338 -237 -623
-237 -940 0 -163 12 -258 50 -408 83 -328 251 -617 520 -892 l54 -56 -20 -59
c-59 -172 -75 -316 -56 -519 27 -300 140 -537 346 -729 204 -190 541 -332 953
-402 262 -45 669 -79 957 -79 235 0 668 32 860 64 30 5 69 11 85 13 122 18
346 75 477 122 113 41 293 131 372 187 120 86 237 210 313 333 47 74 114 254
127 339 4 21 8 41 10 45 3 4 8 45 12 91 19 212 4 359 -52 525 l-24 70 59 60
c205 209 358 440 452 684 33 85 75 235 84 296 3 22 8 46 10 53 18 53 25 309
11 447 -14 145 -58 335 -115 493 -40 111 -121 291 -143 321 -10 13 -18 27 -18
32 0 13 -67 125 -143 239 -141 212 -319 414 -518 591 -40 35 -77 69 -83 74 -6
6 -29 23 -51 39 -22 17 -42 33 -45 37 -15 21 -307 207 -412 263 -209 110 -481
216 -644 251 -10 2 -52 11 -91 19 -40 9 -87 18 -105 21 -18 3 -34 8 -36 10 -2
2 101 160 229 352 128 191 238 364 245 384 36 104 -47 212 -162 210 -82 -1
-99 -19 -321 -352 -113 -170 -209 -309 -212 -309 -3 0 -6 190 -5 422 1 452 0
464 -49 516 -12 13 -30 28 -40 34 -28 15 -109 19 -137 7z"/>
</g>
</svg>
